<?xml version="1.0" ?><svg height="24px" version="1.1" viewBox="0 0 24 24" width="24px" xmlns="http://www.w3.org/2000/svg" xmlns:xlink="http://www.w3.org/1999/xlink"><title/><desc/><g fill="none" fill-rule="evenodd" id="Social-/-15---Social,-achievement,-goal,-trophy,-win-icon" stroke="none" stroke-linecap="round" stroke-linejoin="round" stroke-width="1"><path d="M6,11 L4,11 C2.8954305,11 2,10.1636323 2,9.13192041 L2,6 L6,6 L6,11 Z" id="Path" stroke="#000000" stroke-width="2"/><path d="M18,2 L18,10.353091 C18,13.9998774 17,16.75 12,16.75 C7,16.75 6,13.9998774 6,10.353091 L6,2 L18,2 Z" id="Path" stroke="#000000" stroke-width="2"/><path d="M18,11 L18,6 L22,6 L22,9.13192041 C22,10.1636323 21.1045695,11 20,11 L18,11 Z" id="Path" stroke="#000000" stroke-width="2"/><line id="Path" stroke="#000000" stroke-width="2" x1="10" x2="14" y1="22" y2="22"/><line id="Path" stroke="#000000" stroke-width="2" x1="12" x2="12" y1="18" y2="21.7543165"/></g></svg>