<?xml version="1.0" ?><svg viewBox="0 0 64 64" xmlns="http://www.w3.org/2000/svg"><g id="outling-cut"><path d="M48.99,9.493a3,3,0,0,0-3.65-2.929l-.389.086a33.571,33.571,0,0,1-12.084.465L18.132,5.01a1.02,1.02,0,0,0-.166.008,1.067,1.067,0,0,0-.205.011,4.952,4.952,0,0,0-.342.153.861.861,0,0,0-.1.095.843.843,0,0,0-.313.527c-.236,1.177-.433,2.379-.586,3.569a1,1,0,1,0,1.984.254c.1-.815.232-1.635.378-2.448l3.985.8a44.336,44.336,0,0,0-.04,16.814l-.275.034c-.366.045-.73.084-1.09.111-.527.037-1.056.065-1.587.065h-.962q-.263-1.437-.44-2.887c-.042-.338-.062-.679-.1-1.019-.064-.629-.134-1.257-.174-1.888-.026-.4-.029-.8-.045-1.2-.023-.574-.053-1.148-.056-1.722,0-.418.017-.837.025-1.255.012-.615.015-1.23.05-1.844a1,1,0,0,0-2-.114c-.007.109,0,.217-.008.326,0,.017-.012.032-.013.049-.027.568-.021,1.135-.03,1.7-.008.452-.03.9-.025,1.355.006.664.045,1.327.077,1.99.02.419.025.838.055,1.257.054.74.142,1.478.227,2.216.039.339.061.679.107,1.017q.219,1.613.537,3.21a1,1,0,0,0,.98.8h1.789a24.735,24.735,0,0,0,7.955-1.31,1,1,0,0,0-.642-1.894,22.807,22.807,0,0,1-2.383.648,42.381,42.381,0,0,1,.11-16.458L32.584,9.1A35.575,35.575,0,0,0,42.99,9.042V14a1,1,0,0,0,2,0V8.682c.131-.028.263-.049.394-.078l.389-.086a1,1,0,0,1,1.217.975V19.587L45.584,21H32.99a1,1,0,0,0-.554.168,22.8,22.8,0,0,1-2.024,1.2,1,1,0,0,0,.932,1.77c.662-.349,1.316-.732,1.946-1.141h1.7v2H34a1,1,0,0,0,0,2h.99v2H34a1,1,0,0,0,0,2h.99v3a1.073,1.073,0,0,0,.016.179l.711,3.911V49.945a9.467,9.467,0,0,1-2.467,6.382,1,1,0,0,0-.26.673,4,4,0,0,0,4,4h4a4,4,0,0,0,4-4V38a.984.984,0,0,0-.03-.242l-.97-3.881V31a1,1,0,0,0-2,0v3a.984.984,0,0,0,.03.242l.97,3.881v.122l-5.273,1.507V38a.977.977,0,0,0-.016-.179L36.99,33.91V31h2a1,1,0,1,0,0-2h-2V27h2a1,1,0,1,0,0-2h-2V23h5v3.938a1,1,0,0,0,2,0V23H46a1,1,0,0,0,.709-.3l1.99-2a1,1,0,0,0,.291-.7Zm-6,38.752-5.273,1.507V46.833l5.273-1.507ZM40.99,59h-4a2,2,0,0,1-1.97-1.658,11.472,11.472,0,0,0,2.531-5.462l5.439-1.554V57A2,2,0,0,1,40.99,59Zm2-18.674v2.919l-5.273,1.507V41.833Z"/><path d="M43.61,18.92a.852.852,0,0,0,.38.08.99.99,0,0,0,1-1,1.487,1.487,0,0,0-.02-.2.636.636,0,0,0-.06-.18.782.782,0,0,0-.09-.181,1.7,1.7,0,0,0-.12-.149,1.576,1.576,0,0,0-.15-.12.757.757,0,0,0-.18-.09.636.636,0,0,0-.18-.06,1.009,1.009,0,0,0-.91.27,1.05,1.05,0,0,0-.29.71.99.99,0,0,0,.29.71A1.155,1.155,0,0,0,43.61,18.92Z"/><path d="M47.865,52a1,1,0,0,0-1,1v6a1,1,0,0,0,2,0V53A1,1,0,0,0,47.865,52Z"/><path d="M48.99,27a1,1,0,0,0-2,0v6a1,1,0,0,0,2,0Z"/><path d="M48.99,48a1.05,1.05,0,0,0-.29-.71,1,1,0,0,0-1.09-.21.9.9,0,0,0-.54.54,1,1,0,0,0,1.63,1.09,1.169,1.169,0,0,0,.21-.33A1,1,0,0,0,48.99,48Z"/><path d="M48.91,42.62a1.032,1.032,0,0,0-.21-.33,1,1,0,0,0-1.09-.21.9.9,0,0,0-.54.54.99.99,0,0,0,1.3,1.3,1.032,1.032,0,0,0,.33-.21.99.99,0,0,0,.21-1.09Z"/><path d="M48.91,37.62a1.032,1.032,0,0,0-.21-.33,1.021,1.021,0,0,0-1.09-.21.9.9,0,0,0-.54.54.99.99,0,0,0,1.3,1.3,1.155,1.155,0,0,0,.33-.21,1.484,1.484,0,0,0,.22-.33.986.986,0,0,0,.07-.38A.838.838,0,0,0,48.91,37.62Z"/></g></svg>